<svg width="100" height="100" viewBox="0 0 60 60" fill="none" xmlns="http://www.w3.org/2000/svg">
<path fill-rule="evenodd" clip-rule="evenodd" d="M10.1401 13.3594L16.952 9.47589L26.1912 4.19434L35.4303 9.47589L44.6695 14.7574V20.8934L39.3061 17.8254L26.1912 10.2914L15.5035 16.4273L10.1401 13.3594ZM7.71289 17.5147V23.806L26.5044 34.5633L31.7503 31.2623L7.71289 17.5147Z" fill="#4878A6"/>
<path fill-rule="evenodd" clip-rule="evenodd" d="M42.2423 37.2812L35.4303 41.1647L26.1912 46.4462L16.952 41.1647L7.71289 35.8831V29.7472L13.0763 32.8152L26.1912 40.3103L36.8788 34.1744L42.2423 37.2812ZM30.6933 18.7958L26.3086 16.2715L21.141 19.2229L24.4295 21.1259L43.221 31.8831L44.7086 32.7375V26.7958L43.221 25.9414L30.6933 18.7958Z" fill="#2A5275"/>
</svg>