<svg width="184" height="60" viewBox="0 0 184 60" fill="none" xmlns="http://www.w3.org/2000/svg">
<path fill-rule="evenodd" clip-rule="evenodd" d="M156.675 22.0579V17.553H177.385V22.019H169.712V34.8346H164.348V22.019H156.675V22.0579ZM78.2597 17.6307V34.9123H83.6231V22.7957L90.6699 34.9123H95.0546L101.632 22.7957V34.9123H106.329L108.404 27.4559L106.604 27.4171L108.678 17.6307H97.8733L93.2929 27.3006H92.4707L87.8903 17.6307H78.2597ZM66.5933 30.9899C69.1771 30.9899 70.6648 30.9511 71.0563 30.8734C71.4478 30.7957 71.6827 30.4851 71.6827 29.9414C71.6827 29.2812 71.4086 28.854 70.8214 28.6987C70.2342 28.5433 68.8248 28.4268 66.5933 28.4268C62.1303 28.4268 59.3116 28.1161 58.1371 27.4559C56.9627 26.7957 56.3754 25.2035 56.3754 22.6792C56.3754 20.3103 57.1193 18.8346 58.6461 18.1744C59.8205 17.6695 62.4044 17.4365 66.4367 17.4365C70.0384 17.4365 72.309 17.5142 73.2486 17.7084C75.0495 18.0579 76.1456 19.3394 76.498 21.5919H66.5542H66.4367C64.0095 21.5919 62.6393 21.6307 62.2478 21.7084C61.8563 21.786 61.6997 22.1356 61.6997 22.6792C61.6997 23.2618 62.0129 23.6501 62.6393 23.8443C63.2656 24.0385 64.5576 24.1161 66.5542 24.1161C70.978 24.1161 73.7967 24.4657 75.0886 25.1647C76.3805 25.8637 77.0069 27.4559 77.0069 29.9414C77.0069 32.2326 76.3022 33.7084 74.8537 34.3686C73.601 34.9123 70.8605 35.1841 66.515 35.1841C63.1873 35.1841 61.0342 35.1064 60.0554 34.9511C58.5286 34.7181 57.4716 34.2132 56.9235 33.3589C56.5712 32.8152 56.3363 32.0385 56.1797 30.9899H66.3976H66.5933ZM115.569 17.6307H124.964L133.577 34.8734H127.313L125.669 31.9608H115.06L113.415 34.8734H107.152L107.191 34.7957L114.316 24.9705L111.066 24.7763L115.569 17.6307ZM120.736 21.5142H119.914L117.017 27.4948H123.633L120.736 21.5142ZM134.282 17.553H149.863C151.781 17.553 153.152 17.9025 153.935 18.6016C154.796 19.3394 155.226 20.6987 155.226 22.6016C155.226 24.0773 155.031 25.2035 154.678 25.9025C154.326 26.6016 153.7 27.1453 152.799 27.4948C153.778 27.922 154.404 28.3491 154.718 28.7375C155.031 29.1647 155.187 29.9025 155.187 30.9899V34.8734H149.824V31.7666C149.824 31.3006 149.706 30.9511 149.472 30.6404C149.158 30.2521 148.689 30.019 148.101 30.019H139.645V34.8346H134.282V17.553ZM139.606 22.0579V25.5919H148.219C148.806 25.5919 149.237 25.4754 149.472 25.2035C149.706 24.9705 149.863 24.5045 149.863 23.8443C149.863 23.1841 149.746 22.7181 149.472 22.4462C149.198 22.1744 148.806 22.0579 148.219 22.0579H139.606Z" fill="#4878A6"/>
<path fill-rule="evenodd" clip-rule="evenodd" d="M10.1401 13.3594L16.952 9.47589L26.1912 4.19434L35.4303 9.47589L44.6695 14.7574V20.8934L39.3061 17.8254L26.1912 10.2914L15.5035 16.4273L10.1401 13.3594ZM7.71289 17.5147V23.806L26.5044 34.5633L31.7503 31.2623L7.71289 17.5147Z" fill="#4878A6"/>
<path fill-rule="evenodd" clip-rule="evenodd" d="M42.2423 37.2812L35.4303 41.1647L26.1912 46.4462L16.952 41.1647L7.71289 35.8831V29.7472L13.0763 32.8152L26.1912 40.3103L36.8788 34.1744L42.2423 37.2812ZM30.6933 18.7958L26.3086 16.2715L21.141 19.2229L24.4295 21.1259L43.221 31.8831L44.7086 32.7375V26.7958L43.221 25.9414L30.6933 18.7958Z" fill="#2A5275"/>
</svg>
